<svg width="1325" height="47" viewBox="0 0 1325 47" fill="none" xmlns="http://www.w3.org/2000/svg">
<path d="M1 1C21.2826 7.0155 46.9801 19.7632 61 28.6954C95 -13 86.6822 41.9427 113 44.4166C140.591 47.0102 176.05 32.113 204.009 32.113C224.39 32.113 241.294 25.4585 261.11 23.3031C282.117 21.018 302.973 23.8809 322.621 28.6954C333.429 31.344 343.767 32.9979 355.164 34.4674C381.757 37.8962 407.061 43.4518 434.318 44.4166C455.396 45.1627 476.504 45.7836 497.617 45.7836C519.367 45.7836 543.335 38.6589 564.611 35.5307C594.017 31.2072 622.402 29.3789 652.467 29.3789C667.604 29.3789 677.339 31.7441 691.805 34.8472C723.159 41.5726 755.281 45.6342 788.363 45.7836C801.584 45.8434 815.773 46.5029 828.893 45.1761C851.291 42.9111 882.904 47.0539 905.5 45.1761C953.801 41.1622 992.029 32.113 1040.61 32.113C1066.08 32.113 1093.58 46.9407 1119 45.7836C1142.09 44.7327 1161.92 25.9082 1184.13 22.0879C1198.3 19.651 1228.91 29.8899 1242 25.2777C1251.83 21.812 1244.16 11.6071 1254.94 11.6071C1266.78 11.6071 1275.44 16.377 1285.22 20.569C1286.97 21.3196 1295.49 24.1008 1295.71 25.2777C1296.25 28.206 1321.14 12.9763 1324 15.4045" stroke="#3AAFA9" stroke-width="2" stroke-linecap="round" stroke-linejoin="round"/>
</svg>
